<svg xmlns="http://www.w3.org/2000/svg" width="25.684" height="25.69" viewBox="0 0 25.684 25.69">
  <path id="hashtag" d="M21.807,2l.218.016a1.606,1.606,0,0,1,1.363,1.816h0l-.656,4.6h3.347a1.605,1.605,0,0,1,0,3.21h-3.8l-.916,6.419h2.58a1.605,1.605,0,0,1,0,3.21H20.9l-.719,5.043A1.605,1.605,0,1,1,17,25.855h0l.655-4.59H10.2l-.72,5.043A1.605,1.605,0,1,1,6.3,25.855h0l.655-4.589H3.605a1.605,1.605,0,0,1,0-3.21H7.413l.916-6.421H5.745a1.605,1.605,0,0,1,0-3.21H8.787l.72-5.043a1.605,1.605,0,1,1,3.178.454h0l-.655,4.59h7.458l.72-5.05a1.605,1.605,0,0,1,1.816-1.362Zm-2.776,9.639H11.572l-.916,6.42h7.459Z" transform="translate(-2 -1.997)" fill="#8c9094"/>
</svg>
