<svg xmlns="http://www.w3.org/2000/svg" width="28.59" height="25.492" viewBox="0 0 28.59 25.492">
  <g id="logo-react-svgrepo-com" transform="translate(-16 -41.999)">
    <path id="Path_185" data-name="Path 185" d="M39.506,50.261h0q-.457-.156-.92-.291.077-.313.142-.629c.7-3.389.241-6.119-1.314-7.018-1.489-.862-3.931.036-6.394,2.185q-.363.318-.712.655-.232-.224-.476-.438c-2.582-2.3-5.17-3.266-6.723-2.364-1.489.864-1.932,3.431-1.3,6.643q.094.476.211.949c-.366.1-.72.216-1.058.334C17.933,51.344,16,53,16,54.72c0,1.776,2.075,3.557,5.228,4.637q.384.13.774.242-.127.506-.225,1.023c-.6,3.157-.131,5.662,1.355,6.521,1.535.887,4.11-.024,6.62-2.222q.3-.261.6-.551.376.364.774.706c2.43,2.1,4.83,2.942,6.313,2.08,1.534-.89,2.032-3.582,1.385-6.857q-.074-.375-.172-.766.272-.08.532-.166c3.276-1.088,5.41-2.848,5.41-4.646C44.589,52.995,42.594,51.327,39.506,50.261Zm-7.683-4.829c2.11-1.841,4.083-2.568,4.982-2.048h0c.957.553,1.329,2.784.728,5.711q-.06.286-.129.57a29.056,29.056,0,0,0-3.823-.605,28.664,28.664,0,0,0-2.416-3.023q.32-.311.656-.6ZM24.441,56.189q.388.75.811,1.482t.9,1.472a25.925,25.925,0,0,1-2.635-.425C23.767,57.9,24.078,57.053,24.441,56.189Zm0-2.879c-.357-.845-.66-1.677-.908-2.479.816-.183,1.686-.332,2.592-.446q-.456.711-.877,1.443t-.809,1.482Zm.649,1.44q.565-1.178,1.216-2.31h0q.651-1.132,1.386-2.211c.851-.064,1.722-.1,2.6-.1s1.758.034,2.608.1q.727,1.077,1.378,2.2t1.232,2.3q-.574,1.182-1.229,2.319h0q-.65,1.132-1.37,2.218c-.849.06-1.727.092-2.621.092s-1.755-.028-2.588-.082q-.74-1.083-1.4-2.221t-1.22-2.309Zm10.252,2.913q.432-.749.829-1.518h0a26.231,26.231,0,0,1,.96,2.521,25.877,25.877,0,0,1-2.668.456Q34.918,58.4,35.342,57.663Zm.817-4.352q-.4-.753-.823-1.489h0q-.417-.725-.869-1.433c.912.116,1.787.269,2.607.457A26.2,26.2,0,0,1,36.159,53.311Zm-5.851-6.4h0a26.192,26.192,0,0,1,1.683,2.036q-1.689-.08-3.379,0C29.167,48.212,29.736,47.53,30.308,46.911ZM23.723,43.42c.957-.555,3.072.238,5.3,2.22.142.127.286.26.429.4a29.266,29.266,0,0,0-2.434,3.02,29.729,29.729,0,0,0-3.815.6q-.109-.438-.2-.883h0C22.468,46.017,22.824,43.941,23.723,43.42Zm-1.394,15q-.357-.1-.706-.221a10.34,10.34,0,0,1-3.335-1.775,2.53,2.53,0,0,1-1.066-1.7c0-1.043,1.552-2.373,4.141-3.276q.488-.17.984-.31a29.4,29.4,0,0,0,1.394,3.618A29.926,29.926,0,0,0,22.328,58.42ZM28.947,64a10.35,10.35,0,0,1-3.2,2.008h0a2.519,2.519,0,0,1-2,.076c-.9-.521-1.277-2.534-.765-5.233q.091-.476.208-.953a28.641,28.641,0,0,0,3.853.559,29.852,29.852,0,0,0,2.454,3.038Q29.225,63.756,28.947,64Zm1.395-1.383c-.579-.626-1.157-1.319-1.72-2.063q.821.032,1.672.032.874,0,1.727-.038a26.165,26.165,0,0,1-1.68,2.069Zm7.416,1.7a2.53,2.53,0,0,1-.936,1.778c-.9.523-2.828-.157-4.905-1.949-.238-.2-.476-.425-.719-.655a28.86,28.86,0,0,0,2.4-3.049,28.461,28.461,0,0,0,3.871-.6q.088.354.155.693h0A10.376,10.376,0,0,1,37.759,64.319Zm1.036-6.113h0c-.156.052-.317.1-.48.151a28.784,28.784,0,0,0-1.448-3.63,28.68,28.68,0,0,0,1.391-3.577c.292.085.577.175.85.269,2.646.912,4.26,2.263,4.26,3.3C43.368,55.828,41.625,57.266,38.795,58.206Z" fill="#757575"/>
    <path id="Path_186" data-name="Path 186" d="M215.693,217.671a2.561,2.561,0,1,0-2.553-2.561A2.561,2.561,0,0,0,215.693,217.671Z" transform="translate(-185.398 -160.392)" fill="#757575"/>
  </g>
</svg>
