<?xml version="1.0" standalone="no"?>
<svg xmlns:xlink="http://www.w3.org/1999/xlink" id="wave" style="transform:rotate(0deg); transition: 0.3s" viewBox="0 0 1440 100" version="1.1" xmlns="http://www.w3.org/2000/svg"><defs><linearGradient id="sw-gradient-0" x1="0" x2="0" y1="1" y2="0"><stop stop-color="rgba(209.673, 209.673, 209.673, 1)" offset="0%"/><stop stop-color="rgba(255, 255, 255, 1)" offset="100%"/></linearGradient></defs><path style="transform:translate(0, 0px); opacity:1" fill="url(#sw-gradient-0)" d="M0,70L11.4,58.3C22.9,47,46,23,69,16.7C91.4,10,114,20,137,23.3C160,27,183,23,206,25C228.6,27,251,33,274,40C297.1,47,320,53,343,60C365.7,67,389,73,411,63.3C434.3,53,457,27,480,16.7C502.9,7,526,13,549,15C571.4,17,594,13,617,21.7C640,30,663,50,686,56.7C708.6,63,731,57,754,60C777.1,63,800,77,823,70C845.7,63,869,37,891,28.3C914.3,20,937,30,960,36.7C982.9,43,1006,47,1029,51.7C1051.4,57,1074,63,1097,56.7C1120,50,1143,30,1166,23.3C1188.6,17,1211,23,1234,31.7C1257.1,40,1280,50,1303,53.3C1325.7,57,1349,53,1371,58.3C1394.3,63,1417,77,1440,75C1462.9,73,1486,57,1509,53.3C1531.4,50,1554,60,1577,66.7C1600,73,1623,77,1634,78.3L1645.7,80L1645.7,100L1634.3,100C1622.9,100,1600,100,1577,100C1554.3,100,1531,100,1509,100C1485.7,100,1463,100,1440,100C1417.1,100,1394,100,1371,100C1348.6,100,1326,100,1303,100C1280,100,1257,100,1234,100C1211.4,100,1189,100,1166,100C1142.9,100,1120,100,1097,100C1074.3,100,1051,100,1029,100C1005.7,100,983,100,960,100C937.1,100,914,100,891,100C868.6,100,846,100,823,100C800,100,777,100,754,100C731.4,100,709,100,686,100C662.9,100,640,100,617,100C594.3,100,571,100,549,100C525.7,100,503,100,480,100C457.1,100,434,100,411,100C388.6,100,366,100,343,100C320,100,297,100,274,100C251.4,100,229,100,206,100C182.9,100,160,100,137,100C114.3,100,91,100,69,100C45.7,100,23,100,11,100L0,100Z"/></svg>