<svg xmlns="http://www.w3.org/2000/svg" width="512" height="512" viewBox="0 0 512 512">
  <g id="internet-svgrepo-com" transform="translate(0 0)">
    <g id="Group_1" data-name="Group 1">
      <path id="Path_1" data-name="Path 1" d="M437.019,74.981c-99.974-99.974-262.065-99.974-362.039,0s-99.974,262.065,0,362.039,262.065,99.974,362.039,0,99.974-262.065,0-362.039ZM182.06,35.044c-10.76,11.17-20.727,24.9-29.67,41a246.458,246.458,0,0,1-18.472-18.4,232.01,232.01,0,0,1,48.142-22.6ZM114.821,70.789A267.466,267.466,0,0,0,141.8,97.362c-11.776,26.527-20.372,56.726-25.438,89.028-27.946-9.887-50.19-23.266-65.638-39.851-.074-.079-.154-.146-.229-.222a234.676,234.676,0,0,1,64.326-75.528ZM23.011,256A231.723,231.723,0,0,1,40.1,168.463c19.925,18.859,45.443,32.164,73.248,41.426a461.341,461.341,0,0,0,0,92.219c-27.807,9.261-53.325,22.565-73.252,41.421A231.732,231.732,0,0,1,23.011,256Zm91.8,185.2a234.669,234.669,0,0,1-64.319-75.526c.076-.077.158-.145.232-.226,15.45-16.582,37.7-29.958,65.641-39.844,5.066,32.3,13.662,62.494,25.434,89.019A267.592,267.592,0,0,0,114.81,441.2Zm19.1,13.152a246.464,246.464,0,0,1,18.49-18.42c8.943,16.109,18.9,29.851,29.665,41.024a232.022,232.022,0,0,1-48.166-22.6ZM244.5,487.922c-27.028-4.988-52.52-27.467-72.765-64.557-.366-.67-.72-1.354-1.082-2.031,23.512-16.669,48.4-26.35,73.846-28.6v95.183Zm0-118.264c-29.091,2.162-57.339,12.518-83.847,30.583-10.239-24.368-17.7-51.958-22.063-81.446,30.339-7.986,65.982-12.484,105.91-13.206Zm0-87.1c-34.062.589-72.477,3.926-108.671,13.015-1.172-12.948-1.778-26.175-1.778-39.583s.6-26.63,1.778-39.577c36.192,9.092,74.607,12.428,108.671,13.017Zm0-76.154c-39.929-.723-75.572-5.221-105.911-13.208,4.368-29.491,11.824-57.085,22.064-81.454,26.507,18.066,54.754,28.421,83.847,30.583V206.41Zm0-87.162c-25.452-2.245-50.336-11.927-73.844-28.6.36-.675.714-1.358,1.079-2.026C191.978,51.528,217.47,29.047,244.5,24.059Zm152.685-48.46A234.646,234.646,0,0,1,461.5,146.317c-.075.077-.156.144-.23.223-15.45,16.585-37.7,29.965-65.643,39.852-5.066-32.3-13.662-62.5-25.437-89.027a267.438,267.438,0,0,0,26.987-26.577Zm-19.1-13.149a246.182,246.182,0,0,1-18.476,18.412c-8.943-16.111-18.913-29.839-29.674-41.011a232.061,232.061,0,0,1,48.149,22.605ZM267.5,24.069c27.027,4.988,52.52,27.469,72.764,64.557.366.67.72,1.353,1.082,2.03-23.508,16.669-48.391,26.35-73.845,28.593V24.069Zm83.846,87.68c10.24,24.369,17.7,51.963,22.064,81.453-30.339,7.986-65.981,12.485-105.91,13.207V142.33h0c29.1-2.161,57.344-12.516,83.849-30.581ZM267.5,229.437c34.062-.588,72.477-3.926,108.669-13.016,1.172,12.946,1.778,26.171,1.778,39.576s-.605,26.633-1.778,39.582c-36.193-9.089-74.607-12.426-108.669-13.014Zm0,76.152c39.928.723,75.57,5.22,105.909,13.2-4.367,29.488-11.823,57.078-22.062,81.445-26.509-18.064-54.756-28.419-83.847-30.581Zm0,182.335V392.741c25.452,2.244,50.336,11.923,73.847,28.593-.361.678-.717,1.362-1.083,2.033C320.023,460.456,294.53,482.937,267.5,487.924Zm62.429-10.964c10.762-11.174,20.726-24.919,29.67-41.03a246.349,246.349,0,0,1,18.492,18.424,232.156,232.156,0,0,1-48.159,22.606Zm67.26-35.76A267.646,267.646,0,0,0,370.2,414.62C381.971,388.1,390.565,357.9,395.63,325.6c27.947,9.884,50.194,23.262,65.645,39.845.075.081.156.147.234.226A234.665,234.665,0,0,1,397.189,441.2Zm1.463-139.1a459.149,459.149,0,0,0,2.31-46.11,459.587,459.587,0,0,0-2.321-46.2c27.819-9.157,53.337-22.463,73.264-41.323a232.815,232.815,0,0,1,0,175.067c-19.924-18.857-45.444-32.162-73.253-41.423Z" fill="#fff"/>
    </g>
  </g>
</svg>
